<svg id="fish" xmlns="http://www.w3.org/2000/svg" width="21.105" height="20.667" viewBox="0 0 21.105 20.667">
  <path id="Path_100" data-name="Path 100" d="M322.371,109.842a.884.884,0,0,0,.539-1.127.907.907,0,0,0-.137-.249A8.125,8.125,0,0,0,318.5,106a12.174,12.174,0,0,1,1.326,4.741Z" transform="translate(-305.301 -101.835)" fill="#fff"/>
  <path id="Path_101" data-name="Path 101" d="M64.7,235.3a7.877,7.877,0,0,0-.373,4.662.885.885,0,0,0,1.1.593.9.9,0,0,0,.253-.124l1.645-1.156a10.483,10.483,0,0,1-2.3-3.174,7.068,7.068,0,0,1-.332-.8Z" transform="translate(-61.454 -225.777)" fill="#fff"/>
  <path id="Path_102" data-name="Path 102" d="M102.9,21.042a.441.441,0,0,0-.41-.186c-.033,0-3.531.34-5.524-1.459a4.506,4.506,0,0,1-1.392-3.514c0-5.226-2.3-7.774-4.239-8.993A9.166,9.166,0,0,0,87.077,5.5a.447.447,0,0,0-.423.278c-1.5,3.763-1.645,7.02-.41,9.681,1.413,3.046,4.563,5.346,9.631,7.037,1.716.572,3.564,1.828,3.564,3.228a.442.442,0,0,0,.837.2,2.606,2.606,0,0,0,.021-1.471,5.273,5.273,0,0,1-.087-.957,3.787,3.787,0,0,0,2.714-1.993.43.43,0,0,0-.025-.456ZM88.946,10.574a.883.883,0,1,1,.883-.883A.883.883,0,0,1,88.946,10.574Z" transform="translate(-81.872 -5.497)" fill="#fff"/>
  <circle id="Ellipse_100" data-name="Ellipse 100" cx="1.405" cy="1.405" r="1.405" transform="translate(16.639 1.384)" fill="#fff"/>
  <circle id="Ellipse_101" data-name="Ellipse 101" cx="1.384" cy="1.384" r="1.384" transform="translate(7.074 17.339)" fill="#fff"/>
  <circle id="Ellipse_102" data-name="Ellipse 102" cx="1.326" cy="1.326" r="1.326" transform="translate(0 5.852)" fill="#fff"/>
</svg>
