<svg xmlns="http://www.w3.org/2000/svg" xmlns:xlink="http://www.w3.org/1999/xlink" width="17" height="19" viewBox="0 0 17 19">
  <defs>
    <clipPath id="clip-path">
      <rect id="Rectangle_186" data-name="Rectangle 186" width="17" height="19" transform="translate(-0.459 0.086)" fill="#0a2d65" stroke="#707070" stroke-width="1"/>
    </clipPath>
  </defs>
  <g id="Mask_Group_121" data-name="Mask Group 121" transform="translate(0.459 -0.086)" clip-path="url(#clip-path)">
    <g id="_001-swimming-pool" data-name="001-swimming-pool" transform="translate(-0.355 4.554)">
      <path id="Path_351" data-name="Path 351" d="M15.9,9.75a3.372,3.372,0,0,0-3.679,0,1.572,1.572,0,0,1-.969.3,1.548,1.548,0,0,1-.969-.3A3.178,3.178,0,0,0,8.442,9.2,3.208,3.208,0,0,0,6.6,9.75a1.572,1.572,0,0,1-.969.3,1.553,1.553,0,0,1-.973-.3A3.211,3.211,0,0,0,2.82,9.2a3.211,3.211,0,0,0-1.84.542,1.569,1.569,0,0,1-.973.3V11.74a3.211,3.211,0,0,0,1.84-.542,1.561,1.561,0,0,1,.973-.3,1.553,1.553,0,0,1,.973.3,3.211,3.211,0,0,0,1.84.542,3.229,3.229,0,0,0,1.848-.546,1.572,1.572,0,0,1,.969-.3,1.548,1.548,0,0,1,.969.3,3.372,3.372,0,0,0,3.679,0,1.713,1.713,0,0,1,1.939,0,3.178,3.178,0,0,0,1.84.546V10.051A1.614,1.614,0,0,1,15.9,9.75Z" transform="translate(-0.008 -5.407)" fill="#0a2d65"/>
      <path id="Path_352" data-name="Path 352" d="M15.9,6.148a3.372,3.372,0,0,0-3.679,0,1.572,1.572,0,0,1-.969.3,1.548,1.548,0,0,1-.969-.3A3.178,3.178,0,0,0,8.442,5.6a3.208,3.208,0,0,0-1.84.546,1.572,1.572,0,0,1-.969.3,1.553,1.553,0,0,1-.973-.3A3.211,3.211,0,0,0,2.82,5.6a3.211,3.211,0,0,0-1.84.542,1.569,1.569,0,0,1-.973.3V8.138A3.211,3.211,0,0,0,1.847,7.6a1.561,1.561,0,0,1,.973-.3,1.553,1.553,0,0,1,.973.3,3.211,3.211,0,0,0,1.84.542,3.229,3.229,0,0,0,1.848-.546,1.572,1.572,0,0,1,.969-.3,1.548,1.548,0,0,1,.969.3,3.372,3.372,0,0,0,3.679,0,1.713,1.713,0,0,1,1.939,0,3.178,3.178,0,0,0,1.84.546V6.449A1.614,1.614,0,0,1,15.9,6.148Z" transform="translate(-0.008 -5.602)" fill="#0a2d65"/>
      <path id="Path_353" data-name="Path 353" d="M14.06,12.807a3.208,3.208,0,0,0-1.84.546,1.572,1.572,0,0,1-.969.3,1.548,1.548,0,0,1-.969-.3,3.178,3.178,0,0,0-1.84-.546,3.208,3.208,0,0,0-1.84.546,1.572,1.572,0,0,1-.969.3,1.553,1.553,0,0,1-.973-.3,3.211,3.211,0,0,0-1.84-.542,3.211,3.211,0,0,0-1.84.542,1.569,1.569,0,0,1-.973.3v1.689a3.211,3.211,0,0,0,1.84-.542,1.561,1.561,0,0,1,.973-.3,1.553,1.553,0,0,1,.973.3,3.211,3.211,0,0,0,1.84.542A3.229,3.229,0,0,0,7.481,14.8a1.572,1.572,0,0,1,.969-.3,1.548,1.548,0,0,1,.969.3,3.372,3.372,0,0,0,3.679,0,1.713,1.713,0,0,1,1.939,0,3.178,3.178,0,0,0,1.84.546V13.653a1.614,1.614,0,0,1-.977-.3A3.178,3.178,0,0,0,14.06,12.807Z" transform="translate(-0.008 -5.211)" fill="#0a2d65"/>
    </g>
  </g>
</svg>
