<svg xmlns="http://www.w3.org/2000/svg" xmlns:xlink="http://www.w3.org/1999/xlink" width="17" height="19" viewBox="0 0 17 19">
  <defs>
    <clipPath id="clip-path">
      <rect id="Rectangle_188" data-name="Rectangle 188" width="17" height="19" transform="translate(0.438 0.086)" fill="#acacac" stroke="#707070" stroke-width="1"/>
    </clipPath>
  </defs>
  <g id="Mask_Group_123" data-name="Mask Group 123" transform="translate(-0.438 -0.086)" clip-path="url(#clip-path)">
    <g id="_003-chat-bubbles-with-ellipsis" data-name="003-chat-bubbles-with-ellipsis" transform="translate(0.413 2.963)">
      <path id="Path_364" data-name="Path 364" d="M15.438,5.033h-.462v5.078a1.375,1.375,0,0,1-1.383,1.506H4.55v.241a1.629,1.629,0,0,0,1.612,1.4h6.913l2.645,1.555-.384-1.555h.1a1.248,1.248,0,0,0,1.184-1.4V6.238A1.088,1.088,0,0,0,15.438,5.033Z" transform="translate(0.247 -1.504)" fill="#acacac"/>
      <path id="Path_365" data-name="Path 365" d="M12.49,1.686H1.987C1.063,1.686,0,2.507,0,3.3V9.663C0,10.392.9,10.918,1.765,11L1.2,13.135l3.6-2.12H12.49c.924,0,1.777-.56,1.777-1.351V3.3A1.814,1.814,0,0,0,12.49,1.686ZM3.59,7.059a.949.949,0,1,1,.949-.949A.949.949,0,0,1,3.59,7.059Zm3.544,0a.949.949,0,1,1,.949-.949A.949.949,0,0,1,7.133,7.059Zm3.544,0a.949.949,0,1,1,.949-.949A.949.949,0,0,1,10.677,7.059Z" transform="translate(0 -1.686)" fill="#acacac"/>
    </g>
  </g>
</svg>
